<?xml version="1.0" encoding="utf-8"?>
<!-- Generator: Adobe Illustrator 24.0.2, SVG Export Plug-In . SVG Version: 6.00 Build 0)  -->
<svg version="1.1" xmlns="http://www.w3.org/2000/svg" xmlns:xlink="http://www.w3.org/1999/xlink" x="0px" y="0px"
	 viewBox="0 0 80 80" style="enable-background:new 0 0 80 80;" xml:space="preserve">
<style type="text/css">
	.st0{fill-rule:evenodd;clip-rule:evenodd;}
	.st1{fill-rule:evenodd;clip-rule:evenodd;fill:#FFFFFF;}
</style>
<g id="레이어_1">
	<g>
		<path class="st0" d="M34.87,30.53c0-4.92-2-9.74-5.49-13.22c-3.85-3.85-9.1-5.88-15.2-5.88h-1.98v1.98v54.54v1.98h1.98h4.48
			c2.43,0,6.22-0.96,8.94-3.68c2.17-2.17,3.31-5.13,3.31-8.57c0-3.88-1.2-7.04-3.55-9.39c-0.87-0.87-1.84-1.57-2.84-2.11
			c1.94-0.93,3.73-2.18,5.27-3.72C33.07,39.17,34.87,34.94,34.87,30.53L34.87,30.53z M16.29,44.1v3.95c2.43,0,6.05,0.79,8.27,3.02
			c1.59,1.59,2.4,3.81,2.4,6.6c0,8.07-8.22,8.3-8.3,8.3h-2.5v-50.5c4.17,0.38,7.75,1.96,10.43,4.63c2.75,2.75,4.33,6.55,4.33,10.43
			C30.92,37.89,24.22,44.1,16.29,44.1L16.29,44.1z"/>
		<path class="st0" d="M63.01,41.78C59.93,38.7,55.83,37,51.47,37c-9,0-16.32,7.32-16.32,16.32c0,4.36,1.7,8.46,4.78,11.54
			c3.08,3.08,7.18,4.78,11.54,4.78c4.36,0,8.46-1.7,11.54-4.78c3.08-3.08,4.78-7.18,4.78-11.54S66.09,44.87,63.01,41.78L63.01,41.78
			z M51.47,65.7c-3.3,0-6.41-1.29-8.75-3.62c-2.34-2.34-3.62-5.44-3.62-8.75c0-3.3,1.29-6.41,3.62-8.75
			c2.34-2.34,5.44-3.62,8.75-3.62c3.3,0,6.41,1.29,8.75,3.62s3.62,5.44,3.62,8.75C63.84,60.15,58.29,65.7,51.47,65.7L51.47,65.7z"/>
		<path class="st0" d="M63.06,30.96l-3.23-3.17c1.29-1.29,2.36-2.36,2.36-2.36l-2.79-2.79l-2.39,2.39l-7.49-7.33
			c-0.39-0.39-0.62-0.94-0.62-1.51c0-0.58,0.22-1.12,0.63-1.53c0.41-0.41,0.95-0.63,1.53-0.63c0.62,0,1.22,0.27,1.63,0.74l2.98-2.6
			c-1.16-1.33-2.84-2.09-4.6-2.09c-3.37,0-6.11,2.74-6.11,6.11c0,1.63,0.64,3.17,1.79,4.32c0,0,0.03,0.03,0.09,0.08l-1.49,1.49
			c-1.35,1.35-2.09,3.14-2.09,5.05c0,1.91,0.74,3.7,2.09,5.05c1.35,1.35,3.14,2.09,5.05,2.09c1.88,0,3.66-0.73,5.01-2.05
			c0,0,0.7-0.7,1.64-1.64c1.88,1.84,3.26,3.19,3.26,3.19L63.06,30.96L63.06,30.96z M52.61,29.43c-0.59,0.58-1.38,0.9-2.23,0.9
			c-0.85,0-1.66-0.33-2.26-0.94c-0.6-0.6-0.94-1.41-0.94-2.26c0-0.85,0.33-1.66,0.94-2.26l1.52-1.52c1.34,1.31,2.98,2.91,4.56,4.47
			L52.61,29.43L52.61,29.43z"/>
	</g>
</g>
<g id="레이어_2">
</g>
</svg>
