<svg xmlns="http://www.w3.org/2000/svg" width="30" height="30" viewBox="0 0 30 30">
    <path id="prefix__iconmonstr-instagram-9" d="M21.563 9.11v1.59a.674.674 0 0 1-.673.674H19.3a.672.672 0 0 1-.672-.674V9.11a.671.671 0 0 1 .672-.672h1.59a.673.673 0 0 1 .673.672zM15 18.364A3.364 3.364 0 1 0 11.636 15 3.366 3.366 0 0 0 15 18.364zm5.326-4.114a5.292 5.292 0 0 1 .057.749A5.384 5.384 0 1 1 9.616 15a5.741 5.741 0 0 1 .205-1.458H8.437v7.349a.673.673 0 0 0 .673.672h11.78a.673.673 0 0 0 .673-.672v-7.349h-1.384a5.965 5.965 0 0 1 .148.707zM30 15A15 15 0 1 1 15 0a15 15 0 0 1 15 15zm-6.25-6.731a2.019 2.019 0 0 0-2.019-2.019H8.269A2.019 2.019 0 0 0 6.25 8.269V21.73a2.019 2.019 0 0 0 2.019 2.02h13.462a2.019 2.019 0 0 0 2.019-2.02z" style="fill:#fff"/>
</svg>
