<svg xmlns="http://www.w3.org/2000/svg" width="30" height="30" viewBox="0 0 30 30">
    <path id="prefix__iconmonstr-pinterest-4" d="M15 0a15 15 0 1 0 15 15A15 15 0 0 0 15 0zm0 23.75a8.744 8.744 0 0 1-2.591-.39 9.7 9.7 0 0 0 1.091-2.294l.546-2.08a2.341 2.341 0 0 0 2.005 1.005c2.639 0 4.541-2.426 4.541-5.443A5.135 5.135 0 0 0 15.194 9.5c-3.776 0-5.781 2.534-5.781 5.294a3.921 3.921 0 0 0 1.778 3.39c.165.077.254.042.293-.118l.241-.991a.263.263 0 0 0-.061-.253 3.409 3.409 0 0 1-.651-2 3.788 3.788 0 0 1 3.951-3.8 3.454 3.454 0 0 1 3.655 3.56c0 2.367-1.2 4.006-2.751 4.006a1.27 1.27 0 0 1-1.3-1.581A17.692 17.692 0 0 0 15.3 14.1a1.1 1.1 0 0 0-1.108-1.233c-.877 0-1.585.909-1.585 2.125a3.139 3.139 0 0 0 .264 1.3s-.871 3.664-1.03 4.346a8.348 8.348 0 0 0-.031 2.51 8.749 8.749 0 1 1 3.19.6z" style="fill:#fff"/>
</svg>
