<?xml version="1.0" encoding="utf-8"?>
<!-- Generator: Adobe Illustrator 24.1.1, SVG Export Plug-In . SVG Version: 6.00 Build 0)  -->
<svg version="1.1" id="레이어_1" xmlns="http://www.w3.org/2000/svg" xmlns:xlink="http://www.w3.org/1999/xlink" x="0px"
	 y="0px" viewBox="0 0 140 20" style="enable-background:new 0 0 140 20;" xml:space="preserve">
<style type="text/css">
	.st0{fill-rule:evenodd;clip-rule:evenodd;fill:#FFFFFF;}
</style>
<g id="레이어_1_1_">
</g>
<g id="레이어_2_1_">
	<g>
		<path class="st0" d="M11,5.2h1.4c1.9,0,2.3,0.1,3,0.3c1,0.3,1.6,1.2,1.6,2c0,1.2-1.2,1.8-1.9,2.1c0.9,0.2,2.2,0.8,2.2,2.4
			c0,1-0.9,1.9-1.5,2.3c-0.9,0.5-1.4,0.6-3.4,0.6H11L11,5.2L11,5.2z M12.7,13.6c0.7,0,1.3,0,1.8-0.2c0.4-0.2,1-0.6,1-1.6
			c0-0.7-0.3-1.1-0.7-1.3c-0.6-0.4-1.6-0.4-2.1-0.4V13.6L12.7,13.6z M12.7,9C13.5,9,14,9,14.4,8.8C15,8.4,15.2,8,15.2,7.6
			c0-0.4-0.3-0.9-0.8-1.1s-0.9-0.2-1.7-0.2V9L12.7,9z"/>
		<polygon class="st0" points="127.1,5.2 127.1,11.9 123.1,5.2 120.8,5.2 120.8,14.8 122.7,14.8 122.7,7.6 126.9,14.8 129,14.8 
			129,5.2 		"/>
		<path class="st0" d="M46.2,9.1h-1.9v1.3h1.9v2.9c-0.8,0-1.6,0-1.7,0c-1.9,0-3.2-1.5-3.2-3.6c0-2,1.4-3.6,3.3-3.6
			c0.8,0,1.8,0,2.5,0.5l0.6-1.2c-1.2-0.6-2.1-0.7-3.2-0.7c-2.6,0-4.6,2.2-4.6,4.9c0,2.8,2.1,5.1,4.7,5.1c0.1,0,3.2,0,3.2,0
			c0-0.3,0-5.7,0-5.7L46.2,9.1L46.2,9.1z"/>
		<path class="st0" d="M61,12.5c0.2-0.3,0.7-1,0.9-1.5l-1.2-1.1c-0.2,0.4-0.5,0.9-0.8,1.3l-2.4-2.8C57,7.8,56.7,7.5,56.7,7
			c0-0.4,0.3-0.8,0.9-0.8c0.3,0,0.6,0.1,0.7,0.4l1-1.1c-0.4-0.4-1-0.6-1.8-0.6C56,4.9,55,5.9,55,7c0,0.8,0.5,1.4,1,2
			C55,10,54,10.8,54,12c0.1,1.7,1.5,2.8,3.6,2.8c1,0,1.6-0.2,2.4-1.1l0.9,1.1l2,0L61,12.5L61,12.5z M57.6,13.5
			c-0.9,0-1.6-0.6-1.7-1.5c0-0.9,0.6-1.4,1.2-1.8l1.9,2.2C58.6,13,58.3,13.5,57.6,13.5L57.6,13.5z"/>
		<path class="st0" d="M74.4,6.1c-0.8-0.8-1.9-1.3-3-1.3c-2.5,0-4.5,2.3-4.5,5.1c0,1.5,0.6,2.9,1.5,3.8c0.8,0.8,1.9,1.3,3,1.3
			s2.2-0.5,3-1.3c1-1,1.5-2.4,1.5-3.8S75.4,7.1,74.4,6.1L74.4,6.1z M71.4,13.8c-0.8,0-1.5-0.3-2.1-0.9c-0.7-0.7-1.2-1.8-1.2-2.9
			s0.4-2.2,1.2-2.9c0.6-0.6,1.3-0.9,2.1-0.9s1.5,0.3,2.1,0.9c0.7,0.7,1.2,1.8,1.2,2.9C74.6,12.1,73.2,13.8,71.4,13.8L71.4,13.8z"/>
		<polygon class="st0" points="79.9,13.2 79.9,5.2 78.3,5.2 78.3,14.8 83.9,14.8 83.9,13.2 		"/>
		<polygon class="st0" points="101.7,6.7 101.7,5.1 96,5.1 96,14.8 97.6,14.8 97.6,10.7 101.4,10.7 101.4,9.1 97.6,9.1 97.6,6.7 		
			"/>
		<polygon class="st0" points="118.2,6.8 118.2,5.2 112.5,5.2 112.5,14.8 118.2,14.8 118.2,13.2 114.1,13.2 114.1,10.8 117.8,10.8 
			117.8,10.8 117.8,9.2 117.8,9.2 114.1,9.2 114.1,6.8 		"/>
		<path class="st0" d="M91.7,5.2v6.5c0,1.1-1,1.9-2.3,1.9c-0.7,0-1.4-0.2-1.8-0.7c-0.3-0.3-0.5-0.8-0.5-1.2V5.2h-1.6v6.5
			c0,0.9,0.3,1.7,1,2.3c0.7,0.7,1.8,1.1,2.9,1.1s2.2-0.4,2.9-1.1c0.6-0.6,1-1.5,1-2.3V5.2H91.7L91.7,5.2z"/>
		<path class="st0" d="M103.6,14.4c0.1,0,1.6,0.7,2.6,0.7c1.1,0,1.9-0.3,2.5-0.9c0.5-0.5,0.8-1.2,0.8-2c0-1.4-0.7-2.1-1.2-2.4
			l-2.7-1.8c-0.3-0.2-0.5-0.3-0.5-0.7c0-0.2,0.1-0.4,0.3-0.6c0.3-0.3,0.9-0.4,1.2-0.4c0.8,0,2.1,0.7,2.1,0.7V5.5
			c-0.1,0-0.9-0.7-2.1-0.7c-1.3,0-3,0.8-3,2.5c0,1.4,0.7,1.8,1.2,2.1l2.7,1.8c0.3,0.2,0.4,0.5,0.4,1c0,0.6-0.2,1.3-1.7,1.3
			c-0.5,0-2.6-0.7-2.6-0.7L103.6,14.4L103.6,14.4z"/>
		<path class="st0" d="M24,5.2h-1.5L18,14.8h1.7l1.2-2.5h4.7l1.2,2.5h1.7L24,5.2L24,5.2z M21.6,10.7l1.6-3.4l1.6,3.4H21.6L21.6,10.7
			z"/>
		<polygon class="st0" points="35.9,11.8 31.9,5.2 29.9,5.2 29.9,14.8 31.4,14.8 31.4,7.4 35.7,14.8 37.4,14.8 37.4,5.2 35.9,5.2 		
			"/>
	</g>
</g>
</svg>
