<?xml version="1.0" encoding="utf-8"?>
<!-- Generator: Adobe Illustrator 24.1.1, SVG Export Plug-In . SVG Version: 6.00 Build 0)  -->
<svg version="1.1" id="레이어_1" xmlns="http://www.w3.org/2000/svg" xmlns:xlink="http://www.w3.org/1999/xlink" x="0px"
	 y="0px" viewBox="0 0 80 80" style="enable-background:new 0 0 80 80;" xml:space="preserve">
<style type="text/css">
	.st0{fill-rule:evenodd;clip-rule:evenodd;fill:#FFFFFF;}
</style>
<g id="레이어_1_1_">
	<g>
		<path class="st0" d="M34.9,30.5c0-4.9-2-9.7-5.5-13.2c-3.9-3.9-9.1-5.9-15.2-5.9h-2v2V68v2h2h4.5c2.4,0,6.2-1,8.9-3.7
			c2.2-2.2,3.3-5.1,3.3-8.6c0-3.9-1.2-7-3.5-9.4c-0.9-0.9-1.8-1.6-2.8-2.1c1.9-0.9,3.7-2.2,5.3-3.7C33.1,39.2,34.9,34.9,34.9,30.5
			L34.9,30.5z M16.3,44.1v4c2.4,0,6,0.8,8.3,3c1.6,1.6,2.4,3.8,2.4,6.6c0,8.1-8.2,8.3-8.3,8.3h-2.5V15.5c4.2,0.4,7.8,2,10.4,4.6
			c2.8,2.8,4.3,6.5,4.3,10.4C30.9,37.9,24.2,44.1,16.3,44.1L16.3,44.1z"/>
		<path class="st0" d="M63,41.8c-3.1-3.1-7.2-4.8-11.5-4.8c-9,0-16.3,7.3-16.3,16.3c0,4.4,1.7,8.5,4.8,11.5
			c3.1,3.1,7.2,4.8,11.5,4.8s8.5-1.7,11.5-4.8s4.8-7.2,4.8-11.5S66.1,44.9,63,41.8L63,41.8z M51.5,65.7c-3.3,0-6.4-1.3-8.8-3.6
			c-2.3-2.3-3.6-5.4-3.6-8.8c0-3.3,1.3-6.4,3.6-8.8c2.3-2.3,5.4-3.6,8.8-3.6c3.3,0,6.4,1.3,8.8,3.6s3.6,5.4,3.6,8.8
			C63.8,60.2,58.3,65.7,51.5,65.7L51.5,65.7z"/>
		<path class="st0" d="M63.1,31l-3.2-3.2c1.3-1.3,2.4-2.4,2.4-2.4l-2.8-2.8L57,25l-7.5-7.3c-0.4-0.4-0.6-0.9-0.6-1.5
			c0-0.6,0.2-1.1,0.6-1.5s1-0.6,1.5-0.6c0.6,0,1.2,0.3,1.6,0.7l3-2.6c-1.2-1.3-2.8-2.1-4.6-2.1c-3.4,0-6.1,2.7-6.1,6.1
			c0,1.6,0.6,3.2,1.8,4.3c0,0,0,0,0.1,0.1l-1.5,1.5c-1.3,1.4-2.1,3.1-2.1,5s0.7,3.7,2.1,5s3.1,2.1,5,2.1c1.9,0,3.7-0.7,5-2
			c0,0,0.7-0.7,1.6-1.6c1.9,1.8,3.3,3.2,3.3,3.2L63.1,31L63.1,31z M52.6,29.4c-0.6,0.6-1.4,0.9-2.2,0.9s-1.7-0.3-2.3-0.9
			c-0.6-0.6-0.9-1.4-0.9-2.3s0.3-1.7,0.9-2.3l1.5-1.5c1.3,1.3,3,2.9,4.6,4.5L52.6,29.4L52.6,29.4z"/>
	</g>
</g>
<g id="레이어_2_1_">
</g>
</svg>
